<?xml version="1.0" encoding="utf-8"?>
<!DOCTYPE svg PUBLIC "-//W3C//DTD SVG 1.1//EN" "http://www.w3.org/Graphics/SVG/1.1/DTD/svg11.dtd">
<svg version="1.1" id="Layer_1" xmlns="http://www.w3.org/2000/svg" xmlns:xlink="http://www.w3.org/1999/xlink" x="0px" y="0px"
	 viewBox="0 0 1024 1024" enable-background="new 0 0 1024 1024" xml:space="preserve">
<rect x="473.9" y="-328.9" transform="matrix(0.7071 -0.7071 0.7071 0.7071 -130.5937 542.848)" fill="#3498DB" width="232.1" height="1515.8"/>
<g>
	<path fill="#FFFFFF" d="M271.8,162.3l47.2-47.2l32.3,32.3l-7.3,7.3l-24-24l-12.2,12.2l23.5,23.5l-7.3,7.3l-23.5-23.5l-20.4,20.4
		L271.8,162.3z"/>
	<path fill="#FFFFFF" d="M326.5,182.7c9.8-9.8,24.5-11.2,35.4-0.4c10.9,10.9,9.5,25.6-0.4,35.4c-9.8,9.8-24.6,11.3-35.5,0.4
		C315.2,207.3,316.7,192.4,326.5,182.7z M353.9,210.1c6-6,7.8-14.8,1.5-21.1c-6.3-6.3-15.1-4.5-21.1,1.5c-6.1,6.1-7.8,14.9-1.6,21.2
		C339,218,347.8,216.1,353.9,210.1z"/>
	<path fill="#FFFFFF" d="M352,242.4l34.2-34.2l7.4,7.4l-4.9,4.9c5.9-0.6,12.5,0.9,16.9,5.3l-7.4,7.4c-0.5-0.8-1.1-1.6-2.1-2.5
		c-3.2-3.2-9.5-5.2-13.4-4.2l-23.3,23.3L352,242.4z"/>
	<path fill="#FFFFFF" d="M399.2,289.6l3.7-24.5l-9.8,0.1l-9.2,9.2l-7.4-7.4l47.2-47.2l7.4,7.4l-29.5,29.5l31.5-1.4l9.2,9.2
		l-29.6,1.3l-4.2,33.1L399.2,289.6z"/>
	<path fill="#FFFFFF" d="M474,364.4l22.3-22.3c3.7-3.7,4.5-7.8,0.5-11.8c-3.3-3.3-8.7-4.2-12.4-3.4l-23.9,23.9l-7.4-7.4l22.3-22.3
		c3.7-3.7,4.6-7.7,0.6-11.7c-3.3-3.3-8.7-4-12.4-3.4l-23.9,23.9l-7.4-7.4l34.2-34.2l7.4,7.4l-4.6,4.6c3.5-0.6,11.4,0.5,16.6,5.7
		c5.1,5.1,5.7,10.7,3.1,15.6c5-1.1,12.7,0.2,17.8,5.4c6.2,6.2,6.4,13.2-0.5,20.2l-24.7,24.7L474,364.4z"/>
	<path fill="#FFFFFF" d="M506.1,362.3c9.9-9.9,25.1-10.7,35.2-0.6c10.3,10.3,9,24.5-1.8,35.3l-1.8,1.8l-26.3-26.3
		c-4.5,5.7-5,13.8,1.4,20.2c3.4,3.4,8.6,5.9,13.6,5.9l-1.5,8.3c-6.7-0.2-13.5-3.5-18.9-8.8C495.7,387.8,495.3,373.1,506.1,362.3z
		 M535.2,367.7c-6.3-6.3-14.1-4.4-18.5-0.6l19.2,19.2C539.7,382.2,541.9,374.5,535.2,367.7z"/>
	<path fill="#FFFFFF" d="M563.7,419.9c9.8-9.8,24.5-11.2,35.4-0.4c10.9,10.9,9.5,25.6-0.4,35.4c-9.8,9.8-24.6,11.3-35.5,0.4
		C552.4,444.5,554,429.7,563.7,419.9z M591.1,447.3c6-6,7.8-14.8,1.5-21.1c-6.3-6.3-15.1-4.5-21.1,1.5c-6.1,6.1-7.8,14.9-1.6,21.2
		C576.2,455.2,585,453.4,591.1,447.3z"/>
	<path fill="#FFFFFF" d="M612.4,502.8l21.4-21.4c5.4-5.4,4.3-9.8,0.1-14c-3.7-3.7-9.3-4.7-13.3-4.2l-23.9,23.9l-7.4-7.4l34.2-34.2
		l7.4,7.4l-4.6,4.6c4.9-0.4,12.2,1.3,17.5,6.6c7.4,7.4,7.1,15,0.1,22l-24,24L612.4,502.8z"/>
	<path fill="#FFFFFF" d="M669.4,512.7c14.8-14.9,35.4-13.4,49.1,0.4c9.2,9.2,10.8,19.6,9.2,28.7l-10.6-2.8c1-6.1-0.7-13.3-5.9-18.5
		c-9.3-9.3-23.3-9.2-33.3,0.8c-9.8,9.8-10.1,24-0.8,33.3c4.8,4.8,11.2,6.9,15.4,6.9l7.3-7.3L685.6,540l7.3-7.3l22.3,22.3l-17.6,17.6
		c-9.8,0.6-19.9-2.6-28-10.8C655.9,548.2,654.6,527.5,669.4,512.7z"/>
	<path fill="#FFFFFF" d="M698.4,588.8l34.2-34.2l7.4,7.4l-34.2,34.2L698.4,588.8z M740.4,545c2.5-2.5,6.6-2.5,9.2,0
		c2.5,2.5,2.5,6.6,0,9.2c-2.5,2.5-6.6,2.5-9.2,0C737.9,551.7,737.9,547.5,740.4,545z"/>
	<path fill="#FFFFFF" d="M724.9,599.4l19.7-19.7L739,574l6.4-6.4l5.7,5.7l9.3-9.3l7.4,7.4l-9.3,9.3l6.9,6.9L759,594l-6.9-6.9
		L734.2,605c-2.3,2.3-3,5.2-0.8,7.4c1.4,1.4,3.3,2.1,4.5,2l-3.9,7.4c-2.5-0.1-5.7-1.3-9.1-4.7C719.1,611.2,719.2,605.1,724.9,599.4z
		"/>
	<path fill="#FFFFFF" d="M771,661.4l20.6-20.6l-24.5-24.5l-20.6,20.6l-8.3-8.3l47.2-47.2l8.3,8.3l-19.2,19.2l24.5,24.5l19.2-19.2
		l8.3,8.3l-47.2,47.2L771,661.4z"/>
	<path fill="#FFFFFF" d="M812.1,702.5l4.5-4.5c-5.1,0.3-12-1.3-17.4-6.6c-7.4-7.4-7.1-14.9-0.2-21.9l24.2-24.2l7.4,7.4l-21.4,21.4
		c-5.3,5.3-4.3,9.7-0.1,13.9c3.7,3.7,9.2,4.8,13.2,4.2l24-24l7.4,7.4L819.6,710L812.1,702.5z"/>
	<path fill="#FFFFFF" d="M829.2,719.6l47.2-47.2l7.4,7.4L866,697.6c6.4-0.9,12.3,1.1,16.5,5.4c8.8,8.8,8.3,22.1-2.7,33.1
		c-11.3,11.3-24.4,11.5-33.2,2.8c-4.4-4.4-6.2-10.5-5.4-16.5l-4.7,4.7L829.2,719.6z M851.2,730.1c5.9,5.9,14.4,4.9,21-1.8
		c6.6-6.6,7.6-15.1,1.7-20.9c-3.5-3.5-9.2-5.1-13.4-4.2l-13.6,13.6C846,721,847.6,726.6,851.2,730.1z"/>
</g>
</svg>
